<svg width="18" height="18" fill="none" xmlns="http://www.w3.org/2000/svg"><g clip-path="url(#clip0_324_13)"><path d="M4 7.496c0 .128.023.254.069.37a.853.853 0 00.195.298l4.286 4.141a.646.646 0 00.453.195.646.646 0 00.454-.195l4.285-4.287a.922.922 0 00.255-.58.978.978 0 00-.162-.628.688.688 0 00-.485-.306.638.638 0 00-.522.194L9 10.53 5.17 6.827a.662.662 0 00-.368-.192.61.61 0 00-.396.076.777.777 0 00-.299.32.99.99 0 00-.108.465z" fill="#fff"/></g><defs><clipPath id="clip0_324_13"><path fill="#fff" transform="matrix(0 -1 -1 0 18 18)" d="M0 0h18v18H0z"/></clipPath></defs></svg>